# xmcd
#
# Track frame offsets:
#	150
#	16573
#	30132
#	49298
#	65721
#	82464
#	101630
#	112704
#	129567
#	154363
#	184369
#
# Disc length: 2726 seconds
#
# Revision: 0
# Processed by: cddbd v1.5.2PL0 Copyright (c) Steve Scherf et al.
# Submitted via: EasyCDDAExtractor 16.0.4.1
#
DISCID=8e0aa40b
DTITLE=Vitor Rdrigues - My CD
DYEAR=2012
DGENRE=Popular
TTITLE0=Matei o gato    
TTITLE1=Eu vi a Rosa     
TTITLE2=Entrei na roda     
TTITLE3=Moreninha     
TTITLE4=Tua mulher pode pode     
TTITLE5=Vira velho    
TTITLE6=Ovo ou a galinha   
TTITLE7=lirio roxo      
TTITLE8=Desgarrada       
TTITLE9=Fado      
TTITLE10=Vira das quadras soltas
EXTD=
EXTT0=
EXTT1=
EXTT2=
EXTT3=
EXTT4=
EXTT5=
EXTT6=
EXTT7=
EXTT8=
EXTT9=
EXTT10=
PLAYORDER=
